name C:\Users\u0101727\Documents\MyRepositories\paper-ad\trackingsimulations_3d\Results\TrackSim\IK_c12.mot
datacolumns 32
datarows 10
range 3.85000000 3.99400000
endheader
time	pelvis_tilt	pelvis_list	pelvis_rotation	pelvis_tx	pelvis_ty	pelvis_tz	hip_flexion_l	hip_adduction_l	hip_rotation_l	hip_flexion_r	hip_adduction_r	hip_rotation_r	knee_angle_l	knee_angle_r	ankle_angle_l	ankle_angle_r	subtalar_angle_l	subtalar_angle_r	lumbar_extension	lumbar_bending	lumbar_rotation	arm_flex_l	arm_add_l	arm_rot_l	arm_flex_r	arm_add_r	arm_rot_r	elbow_flex_l	elbow_flex_r	pro_sup_l	pro_sup_r	
          3.85000000	          0.29751810	         -3.02168929	          7.11208953	          0.02594124	          0.92241931	         -0.22398434	        -11.48557049	         -4.77074967	          1.38762275	         26.52609396	          4.44449789	         -7.54303949	        -36.10602552	        -22.75733578	         -4.14615409	         -5.99087228	         13.33334058	        -10.99530375	         -3.96319238	          5.52527462	         -8.62700696	         -1.76195031	        -14.53300493	         19.20533644	         -9.28550484	        -15.61586361	         14.50103884	         22.96775589	         11.49203882	         86.51662706	         86.51662706	
          3.86600000	          0.45668814	         -4.05339485	          6.94229002	          0.04964625	          0.92318364	         -0.22272149	         -9.51865813	         -6.00810739	          1.24203444	         25.61186198	          5.87851181	         -7.47264847	        -40.36374748	        -24.04303033	        -10.30530568	         -4.00960793	         11.97646679	        -11.15930936	         -3.76994452	          6.84969632	         -8.19130130	         -2.25990196	        -14.03284666	         19.48205310	         -9.05961648	        -15.91065811	         14.48173164	         21.88335532	         11.81141259	         86.51662706	         86.51662706	
          3.88200000	          0.64931774	         -4.90174190	          6.85957281	          0.07249047	          0.92451189	         -0.22171171	         -7.19616453	         -6.86109054	          1.79741708	         24.32638900	          7.06741207	         -7.50404407	        -44.68707786	        -24.72885518	        -15.52924369	         -2.00822477	         10.74666786	        -10.96329370	         -3.75597062	          7.95943390	         -7.76941253	         -2.62285291	        -13.59624790	         19.90452988	         -8.72914523	        -16.20574366	         14.34737607	         20.84092707	         12.33130407	         86.51662706	         86.51662706	
          3.89800000	          0.86018714	         -5.59487602	          6.87628499	          0.09439591	          0.92636405	         -0.22092462	         -4.54998164	         -7.37252258	          2.78565756	         22.76608595	          8.05363772	         -7.59416175	        -49.14106320	        -24.89319155	        -18.16189256	         -0.18769058	          9.71472920	        -10.59053027	         -3.90274097	          8.88050079	         -7.35600386	         -2.83687074	        -13.24088428	         20.47374654	         -8.31080904	        -16.50336694	         14.11773747	         19.88777157	         13.08043105	         86.51662706	         86.51662706	
          3.91400000	          1.08626887	         -6.11522921	          7.01388929	          0.11546143	          0.92877662	         -0.22035742	         -1.69586347	         -7.54713581	          4.01283533	         20.98730610	          8.82509247	         -7.72701488	        -53.37833754	        -24.62273119	        -19.14598557	          1.37785431	          8.07046473	        -10.11793092	         -4.18252187	          9.58876155	         -6.97645470	         -2.92605512	        -12.98566472	         21.15401376	         -7.84499339	        -16.79981664	         13.81802134	         19.06459517	         14.08914013	         86.51662706	         86.51662706	
          3.93000000	          1.30414106	         -6.40762127	          7.26691338	          0.13584131	          0.93174073	         -0.21998192	          1.33563912	         -7.34242400	          5.40205043	         19.05771349	          9.32937980	         -7.88754871	        -57.31215211	        -24.02403768	        -18.52155141	          2.70554651	          6.42347462	         -9.55303887	         -4.54054107	         10.01302925	         -6.64740874	         -2.93375151	        -12.84587303	         21.87291901	         -7.37099940	        -17.08331290	         13.47486558	         18.39524631	         15.36374913	         86.51662706	         86.51662706	
          3.94600000	          1.48244171	         -6.45057037	          7.58224742	          0.15573632	          0.93514421	         -0.21971011	          4.48046383	         -6.76224226	          6.79831867	         17.04703310	          9.55678939	         -8.05436027	        -60.76547064	        -23.19665413	        -16.77317220	          3.82649211	          5.06051846	         -8.89709676	         -4.90883348	         10.11917656	         -6.34769651	         -2.91922769	        -12.82229267	         22.53691870	         -6.91981380	        -17.34926191	         13.10933650	         17.89937730	         16.87726155	         86.51662706	         86.51662706	
          3.96200000	          1.59393116	         -6.25216396	          7.88205532	          0.17533137	          0.93881253	         -0.21943348	          7.66051923	         -5.85379872	          8.01922976	         15.01845823	          9.52954266	         -8.19545926	        -63.55000706	        -22.22971052	        -14.44185723	          4.76846042	          3.91004864	         -8.16713937	         -5.23143557	          9.90922008	         -6.02903445	         -2.94014435	        -12.90203583	         23.04541222	         -6.50662500	        -17.59958396	         12.73779442	         17.59390205	         18.57629614	         86.51662706	         86.51662706	
          3.97800000	          1.61819034	         -5.84755518	          8.05697824	          0.19476202	          0.94253374	         -0.21900243	         10.79585771	         -4.70828885	          8.89482372	         13.03760868	          9.30648174	         -8.22557963	        -65.54062113	        -21.21144390	        -11.76140783	          5.53488775	          2.97275786	         -7.44215163	         -5.47761211	          9.41596468	         -5.60024434	         -3.04178255	        -13.06277356	         23.30668676	         -6.13430888	        -17.84355887	         12.37347930	         17.49591992	         20.39860227	         86.51662706	         86.51662706	
          3.99400000	          1.55117336	         -5.28000219	          8.03711495	          0.21408861	          0.94609622	         -0.21833388	         13.81649523	         -3.43085377	          9.33987794	         11.16003896	          8.93211514	         -8.10042476	        -66.63034914	        -20.23123527	         -9.08569545	          6.16009873	          2.25240648	         -6.75741580	         -5.64432245	          8.68906981	         -5.00745956	         -3.24464839	        -13.27799167	         23.26374548	         -5.78652397	        -18.09434459	         12.02467910	         17.60392605	         22.28809149	         86.51662706	         86.51662706	
